<?xml version="1.0" encoding="utf-8"?>
<!-- Generator: Adobe Illustrator 28.0.0, SVG Export Plug-In . SVG Version: 6.00 Build 0)  -->
<svg version="1.1" id="Слой_1" xmlns="http://www.w3.org/2000/svg" xmlns:xlink="http://www.w3.org/1999/xlink" x="0px" y="0px"
	 viewBox="0 0 40 40" style="enable-background:new 0 0 40 40;" xml:space="preserve">
<style type="text/css">
	.st0{fill:#B7B7B7;}
	.st1{fill:#FFFFFF;}
</style>
<path class="st0" d="M39,20L39,20c0,10.5-8.5,19-19,19l0,0C9.5,39,1,30.5,1,20l0,0C1,9.5,9.5,1,20,1l0,0C30.5,1,39,9.5,39,20z"/>
<path class="st1" d="M32.3,16.2C32.3,16.2,32.3,16.2,32.3,16.2c-0.2-0.4-0.4-0.7-0.8-1L29.8,14v-2.8c0-0.5-0.4-1-1-1h-4.3l-3.2-2.3
	c-0.8-0.6-1.8-0.6-2.5,0l-3.2,2.3h-4.3c-0.5,0-1,0.4-1,1V14l-1.8,1.3c-0.3,0.2-0.6,0.6-0.7,0.9c0,0,0,0,0,0
	c-0.1,0.2-0.1,0.5-0.1,0.8v11.8c0,1.2,1,2.2,2.2,2.2h20.5c1.2,0,2.2-1,2.2-2.2V17C32.5,16.8,32.4,16.5,32.3,16.2z M31.2,15.7
	c0.2,0.1,0.4,0.3,0.5,0.5l-1.9,1.4v-3L31.2,15.7z M19,8.3c0.6-0.4,1.3-0.4,1.9,0l2.6,1.9h-7.1L19,8.3z M11.2,10.7h13.2c0,0,0,0,0,0
	c0,0,0,0,0,0h4.4c0.2,0,0.4,0.2,0.4,0.4V18l-8.1,5.9c-0.7,0.5-1.6,0.5-2.2,0L10.8,18v-6.9C10.8,10.9,10.9,10.7,11.2,10.7z M8.8,15.7
	l1.5-1.1v3l-1.9-1.4C8.4,16,8.6,15.8,8.8,15.7z M31.9,28.9c0,0.9-0.7,1.7-1.7,1.7H9.7c-0.9,0-1.7-0.7-1.7-1.7V17c0-0.1,0-0.2,0-0.3
	l10.5,7.6c0.4,0.3,0.9,0.5,1.4,0.5c0.5,0,1-0.2,1.4-0.5l10.5-7.6c0,0.1,0,0.2,0,0.3V28.9z"/>
<g>
	<path class="st1" d="M21.9,13.9c-0.8-0.2-1.5,0.1-1.9,0.7c-0.5-0.6-1.1-0.8-1.9-0.7c-0.6,0.1-1.4,0.8-1.4,1.9
		c0,1.3,0.8,1.9,1.9,2.6c0.4,0.3,0.9,0.7,1.4,1.1c0,0,0,0,0,0c0,0,0,0,0.1,0c0,0,0,0,0,0c0,0,0,0,0.1,0c0.3-0.3,0.6-0.5,0.9-0.7
		c-0.2-0.2-0.4-0.3-0.6-0.5c-0.3-0.3-0.4-0.7-0.4-1.1c0-0.5,0.2-0.8,0.4-1c0.2-0.2,0.5-0.4,0.7-0.4c0.1,0,0.2,0,0.3,0
		c0.2,0,0.4,0,0.6,0.1c0.1,0.1,0.2,0.1,0.3,0.2c0.1-0.1,0.2-0.1,0.3-0.2c0.2-0.1,0.4-0.1,0.6-0.1c0,0,0.1,0,0.1,0
		C23.3,14.7,22.5,14,21.9,13.9z"/>
	<path class="st1" d="M22.3,19.7C22.3,19.7,22.3,19.7,22.3,19.7C22.3,19.7,22.3,19.7,22.3,19.7C22.3,19.6,22.3,19.6,22.3,19.7
		c-0.3-0.3-0.7-0.5-0.9-0.7c-0.7-0.5-1.2-0.9-1.2-1.7c0-0.7,0.5-1.1,0.9-1.2c0.5-0.1,0.9,0,1.2,0.4c0.3-0.4,0.7-0.5,1.2-0.4
		c0.4,0.1,0.9,0.5,0.9,1.2c0,0.8-0.5,1.2-1.2,1.7C22.9,19.1,22.6,19.4,22.3,19.7C22.3,19.7,22.3,19.7,22.3,19.7z"/>
</g>
</svg>
